# Blender 4.1.0
# www.blender.org
mtllib wall.mtl
o Object_2
v 88.153091 -52.891861 5.289193
v 88.153091 52.891861 5.289179
v -88.153091 52.891861 5.289179
v -88.153091 -52.891861 5.289193
v 88.153091 -52.891861 -5.289179
v 88.153091 52.891861 -5.289193
v 88.153091 52.891861 5.289179
v 88.153091 -52.891861 5.289193
v 88.153091 -52.891861 -5.289179
v 88.153091 -52.891861 5.289193
v -88.153091 -52.891861 5.289193
v -88.153091 -52.891861 -5.289179
v -88.153091 -52.891861 5.289193
v -88.153091 52.891861 5.289179
v -88.153091 52.891861 -5.289193
v -88.153091 -52.891861 -5.289179
v 88.153091 52.891861 5.289179
v 88.153091 52.891861 -5.289193
v -88.153091 52.891861 -5.289193
v -88.153091 52.891861 5.289179
v -88.153091 52.891861 -7.357862
v 88.153091 52.891861 -7.357862
v 88.153091 52.891861 7.357847
v -88.153091 52.891861 7.357847
v 88.153091 55.536453 7.357847
v 88.153091 55.536453 -7.357862
v -88.153091 55.536453 -7.357862
v -88.153091 55.536453 7.357847
v -88.153091 55.536453 -7.357862
v -88.153091 52.891861 -7.357862
v -88.153091 52.891861 7.357847
v -88.153091 55.536453 7.357847
v -88.153091 55.536453 7.357847
v -88.153091 52.891861 7.357847
v 88.153091 52.891861 7.357847
v 88.153091 55.536453 7.357847
v 88.153091 55.536453 7.357847
v 88.153091 52.891861 7.357847
v 88.153091 52.891861 -7.357862
v 88.153091 55.536453 -7.357862
v 136.922928 -52.891861 5.289193
v 136.922928 52.891861 5.289179
v 118.807663 52.891861 5.289179
v 118.807663 -52.891861 5.289193
v 136.922928 -52.891857 23.131380
v 136.922928 -52.891861 5.289193
v 145.191620 -52.891861 5.289193
v 145.191620 -52.891857 23.131380
v 136.922928 -52.891861 -5.289179
v 136.922928 -52.891861 5.289193
v 118.807663 -52.891861 5.289193
v 118.807663 -52.891861 -5.289179
v 118.807663 -52.891861 5.289193
v 118.807663 52.891861 5.289179
v 118.807663 52.891861 -5.289193
v 118.807663 -52.891861 -5.289179
v 136.922928 52.891861 5.289179
v 136.922928 52.891861 -5.289193
v 118.807663 52.891861 -5.289193
v 118.807663 52.891861 5.289179
v 145.191620 52.891865 23.131365
v 145.191620 52.891861 5.289179
v 136.922928 52.891861 5.289179
v 136.922928 52.891865 23.131365
v 145.191620 52.891865 23.131365
v 136.922928 52.891865 23.131365
v 136.922928 -52.891857 23.131380
v 145.191620 -52.891857 23.131380
v 145.191620 52.891861 -5.289193
v 136.922928 52.891861 -5.289193
v 136.922928 52.891865 23.131365
v 136.922928 52.891861 5.289179
v 136.922928 -52.891861 5.289193
v 136.922928 -52.891857 23.131380
v 136.922928 -52.891861 -5.289179
v 145.191620 -52.891861 -5.289179
v 118.773476 52.680698 -4.998348
v 134.898788 52.680698 -4.998348
v 134.898788 52.680698 7.727434
v 118.773476 52.680698 7.727434
v 134.898788 52.680698 7.727434
v 144.846024 52.680698 7.727434
v 144.846024 52.680702 23.222126
v 134.898788 52.680702 23.222126
v 134.898788 52.680698 -4.998348
v 144.846024 52.680698 -4.998348
v 134.898788 55.183437 7.727434
v 134.898788 55.183437 -4.998348
v 118.773476 55.183437 -4.998348
v 118.773476 55.183437 7.727434
v 144.846024 55.183441 23.222126
v 144.846024 55.183437 7.727434
v 134.898788 55.183437 7.727434
v 134.898788 55.183441 23.222126
v 144.846024 55.183437 -4.998348
v 134.898788 55.183437 -4.998348
v 118.773476 55.183437 -4.998348
v 118.773476 52.680698 -4.998348
v 118.773476 52.680698 7.727434
v 118.773476 55.183437 7.727434
v 134.898788 55.183437 -4.998348
v 134.898788 52.680698 -4.998348
v 118.773476 52.680698 -4.998348
v 118.773476 55.183437 -4.998348
v 134.898788 55.183437 7.727434
v 134.898788 52.680698 7.727434
v 134.898788 52.680698 -4.998348
v 134.898788 55.183437 -4.998348
v 118.773476 55.183437 7.727434
v 118.773476 52.680698 7.727434
v 134.898788 52.680698 7.727434
v 134.898788 55.183437 7.727434
v 134.898788 55.183437 7.727434
v 134.898788 52.680698 7.727434
v 134.898788 52.680702 23.222126
v 134.898788 55.183441 23.222126
v 144.846024 55.183441 23.222126
v 144.846024 52.680702 23.222126
v 144.846024 52.680698 7.727434
v 144.846024 55.183437 7.727434
v 134.898788 55.183441 23.222126
v 134.898788 52.680702 23.222126
v 144.846024 52.680702 23.222126
v 144.846024 55.183441 23.222126
v 134.898788 55.183437 -4.998348
v 134.898788 52.680698 -4.998348
v 144.846024 55.183437 -4.998348
v 144.846024 52.680698 -4.998348
v 134.898788 52.680698 -4.998348
v 134.898788 55.183437 -4.998348
v 144.846024 52.680698 -4.998348
v 144.846024 55.183437 -4.998348
v 198.066315 -52.891861 5.289193
v 198.066315 52.891861 5.289179
v 178.345917 52.891861 5.289179
v 178.345917 -52.891861 5.289193
v 198.066315 -52.891861 -5.289179
v 198.066315 52.891861 -5.289193
v 198.066315 52.891861 5.289179
v 198.066315 -52.891861 5.289193
v 198.066315 -52.891861 -5.289179
v 198.066315 -52.891861 5.289193
v 178.345917 -52.891861 5.289193
v 178.345917 -52.891861 -5.289179
v 178.345917 -52.891861 5.289193
v 178.345917 52.891861 5.289179
v 178.345917 52.891861 -5.289193
v 178.345917 -52.891861 -5.289179
v 198.066315 52.891861 5.289179
v 198.066315 52.891861 -5.289193
v 178.345917 52.891861 -5.289193
v 178.345917 52.891861 5.289179
v 178.345917 52.891861 -7.122440
v 198.066315 52.891861 -7.122440
v 198.066315 52.891861 7.122426
v 178.345917 52.891861 7.122426
v 198.066315 55.113319 7.122426
v 198.066315 55.113319 -7.122441
v 178.345917 55.113319 -7.122441
v 178.345917 55.113319 7.122426
v 178.345917 55.113319 -7.122441
v 178.345917 52.891861 -7.122440
v 178.345917 52.891861 7.122426
v 178.345917 55.113319 7.122426
v 198.066315 55.113319 -7.122441
v 198.066315 52.891861 -7.122440
v 178.345917 52.891861 -7.122440
v 178.345917 55.113319 -7.122441
v 198.066315 55.113319 7.122426
v 198.066315 52.891861 7.122426
v 198.066315 52.891861 -7.122440
v 198.066315 55.113319 -7.122441
v 178.345917 55.113319 7.122426
v 178.345917 52.891861 7.122426
v 198.066315 52.891861 7.122426
v 198.066315 55.113319 7.122426
vn -0.0000 -0.0000 1.0000
vn 1.0000 -0.0000 -0.0000
vn -0.0000 -1.0000 -0.0000
vn -1.0000 -0.0000 -0.0000
vn -0.0000 1.0000 -0.0000
vn -0.0000 -0.0000 -1.0000
vt 0.823039 0.510808
vt 0.823039 0.064001
vt 0.078360 0.064001
vt 0.078360 0.510808
vt 0.960377 0.958846
vt 0.960377 0.512038
vt 0.915697 0.512038
vt 0.915697 0.958846
vt 0.822645 0.620105
vt 0.822645 0.575424
vt 0.077965 0.575424
vt 0.077965 0.620105
vt 0.999385 0.510808
vt 0.999385 0.064001
vt 0.954704 0.064001
vt 0.954704 0.510808
vt 0.822645 0.666015
vt 0.822645 0.621335
vt 0.077965 0.621335
vt 0.077965 0.666015
vt 0.077965 0.574194
vt 0.822645 0.574194
vt 0.822645 0.512038
vt 0.077965 0.512038
vt 0.823434 0.062771
vt 0.823434 0.000615
vt 0.078754 0.000615
vt 0.078754 0.062771
vt 0.389213 0.800917
vt 0.389213 0.812088
vt 0.451369 0.812088
vt 0.451369 0.800917
vt 0.077966 0.667245
vt 0.077966 0.678415
vt 0.822645 0.678415
vt 0.822645 0.667245
vt 0.183007 0.679645
vt 0.183007 0.690815
vt 0.245163 0.690815
vt 0.245163 0.679645
vt 0.077130 0.510808
vt 0.077130 0.064001
vt 0.000615 0.064001
vt 0.000615 0.510808
vt 0.330917 0.679645
vt 0.330917 0.755007
vt 0.365842 0.755007
vt 0.365842 0.679645
vt 0.819806 0.724326
vt 0.819806 0.679645
vt 0.743291 0.679645
vt 0.743291 0.724326
vt 0.953474 0.510808
vt 0.953474 0.064001
vt 0.908794 0.064001
vt 0.908794 0.510808
vt 0.735281 0.770237
vt 0.735281 0.725556
vt 0.658766 0.725556
vt 0.658766 0.770237
vt 0.401997 0.799688
vt 0.401997 0.724326
vt 0.367072 0.724326
vt 0.367072 0.799688
vt 0.996532 0.512038
vt 0.961607 0.512038
vt 0.961607 0.958846
vt 0.996532 0.958846
vt 0.401997 0.679645
vt 0.367072 0.679645
vt 0.076736 0.512038
vt 0.001374 0.512038
vt 0.001374 0.958846
vt 0.076736 0.958846
vt 0.330917 0.799688
vt 0.365842 0.799688
vt 0.520080 0.329546
vt 0.935856 0.329546
vt 0.935856 0.001424
vt 0.520080 0.001424
vt 0.001424 0.400940
vt 0.257904 0.400940
vt 0.257904 0.001424
vt 0.001424 0.001424
vt 0.001424 0.729063
vt 0.257904 0.729063
vt 0.935856 0.660516
vt 0.935856 0.332393
vt 0.520080 0.332393
vt 0.520080 0.660516
vt 0.517232 0.729063
vt 0.517232 0.329546
vt 0.260752 0.329546
vt 0.260752 0.729063
vt 0.517232 0.001424
vt 0.260752 0.001424
vt 0.001428 0.934045
vt 0.001428 0.998576
vt 0.329549 0.998576
vt 0.329549 0.934045
vt 0.420053 0.866667
vt 0.420053 0.931198
vt 0.835827 0.931198
vt 0.835827 0.866667
vt 0.520080 0.663363
vt 0.520080 0.727894
vt 0.848203 0.727894
vt 0.848203 0.663363
vt 0.001428 0.866667
vt 0.001428 0.931198
vt 0.417205 0.931198
vt 0.417205 0.866667
vt 0.329547 0.731910
vt 0.329547 0.796441
vt 0.729064 0.796441
vt 0.729064 0.731910
vt 0.001428 0.799288
vt 0.001428 0.863819
vt 0.400943 0.863819
vt 0.400943 0.799288
vt 0.731911 0.799288
vt 0.731911 0.863819
vt 0.988392 0.863819
vt 0.988392 0.799288
vt 0.001424 0.731910
vt 0.001424 0.796441
vt 0.731911 0.731910
vt 0.731911 0.796441
vt 0.988390 0.796441
vt 0.988390 0.731910
vt 0.729064 0.863819
vt 0.729064 0.799288
vt 0.907564 0.510808
vt 0.907564 0.064001
vt 0.824269 0.064001
vt 0.824269 0.510808
vt 0.868556 0.958846
vt 0.868556 0.512038
vt 0.823875 0.512038
vt 0.823875 0.958846
vt 0.329687 0.724326
vt 0.329687 0.679645
vt 0.246393 0.679645
vt 0.246393 0.724326
vt 0.914467 0.958846
vt 0.914467 0.512038
vt 0.869786 0.512038
vt 0.869786 0.958846
vt 0.742061 0.724326
vt 0.742061 0.679645
vt 0.658766 0.679645
vt 0.658766 0.724326
vt 0.574241 0.739812
vt 0.657536 0.739812
vt 0.657536 0.679645
vt 0.574241 0.679645
vt 0.486522 0.739812
vt 0.486522 0.679645
vt 0.403227 0.679645
vt 0.403227 0.739812
vt 0.543619 0.811873
vt 0.543619 0.821256
vt 0.603787 0.821256
vt 0.603787 0.811873
vt 0.574241 0.796023
vt 0.574241 0.805406
vt 0.657536 0.805406
vt 0.657536 0.796023
vt 0.482222 0.811873
vt 0.482222 0.821256
vt 0.542389 0.821256
vt 0.542389 0.811873
vt 0.246393 0.737357
vt 0.246393 0.746740
vt 0.329687 0.746740
vt 0.329687 0.737357
s 0
usemtl default
f 1/1/1 2/2/1 3/3/1
f 1/1/1 3/3/1 4/4/1
f 5/5/2 6/6/2 7/7/2
f 5/5/2 7/7/2 8/8/2
f 9/9/3 10/10/3 11/11/3
f 9/9/3 11/11/3 12/12/3
f 13/13/4 14/14/4 15/15/4
f 13/13/4 15/15/4 16/16/4
f 17/17/5 18/18/5 19/19/5
f 17/17/5 19/19/5 20/20/5
f 21/21/3 22/22/3 23/23/3
f 21/21/3 23/23/3 24/24/3
f 25/25/5 26/26/5 27/27/5
f 25/25/5 27/27/5 28/28/5
f 29/29/4 30/30/4 31/31/4
f 29/29/4 31/31/4 32/32/4
f 33/33/1 34/34/1 35/35/1
f 33/33/1 35/35/1 36/36/1
f 37/37/2 38/38/2 39/39/2
f 37/37/2 39/39/2 40/40/2
f 41/41/1 42/42/1 43/43/1
f 41/41/1 43/43/1 44/44/1
f 45/45/3 46/46/3 47/47/3
f 45/45/3 47/47/3 48/48/3
f 49/49/3 50/50/3 51/51/3
f 49/49/3 51/51/3 52/52/3
f 53/53/4 54/54/4 55/55/4
f 53/53/4 55/55/4 56/56/4
f 57/57/5 58/58/5 59/59/5
f 57/57/5 59/59/5 60/60/5
f 61/61/5 62/62/5 63/63/5
f 61/61/5 63/63/5 64/64/5
f 65/65/1 66/66/1 67/67/1
f 65/65/1 67/67/1 68/68/1
f 69/69/5 70/70/5 63/63/5
f 69/69/5 63/63/5 62/62/5
f 71/71/4 72/72/4 73/73/4
f 71/71/4 73/73/4 74/74/4
f 47/47/3 46/46/3 75/75/3
f 47/47/3 75/75/3 76/76/3
f 77/77/3 78/78/3 79/79/3
f 77/77/3 79/79/3 80/80/3
f 81/81/3 82/82/3 83/83/3
f 81/81/3 83/83/3 84/84/3
f 81/81/3 85/85/3 86/86/3
f 81/81/3 86/86/3 82/82/3
f 87/87/5 88/88/5 89/89/5
f 87/87/5 89/89/5 90/90/5
f 91/91/5 92/92/5 93/93/5
f 91/91/5 93/93/5 94/94/5
f 95/95/5 96/96/5 93/93/5
f 95/95/5 93/93/5 92/92/5
f 97/97/4 98/98/4 99/99/4
f 97/97/4 99/99/4 100/100/4
f 101/101/6 102/102/6 103/103/6
f 101/101/6 103/103/6 104/104/6
f 105/105/2 106/106/2 107/107/2
f 105/105/2 107/107/2 108/108/2
f 109/109/1 110/110/1 111/111/1
f 109/109/1 111/111/1 112/112/1
f 113/113/4 114/114/4 115/115/4
f 113/113/4 115/115/4 116/116/4
f 117/117/2 118/118/2 119/119/2
f 117/117/2 119/119/2 120/120/2
f 121/121/1 122/122/1 123/123/1
f 121/121/1 123/123/1 124/124/1
f 125/125/4 126/126/4 114/114/4
f 125/125/4 114/114/4 113/113/4
f 127/127/6 128/128/6 129/129/6
f 127/127/6 129/129/6 130/130/6
f 120/120/2 119/119/2 131/131/2
f 120/120/2 131/131/2 132/132/2
f 133/133/1 134/134/1 135/135/1
f 133/133/1 135/135/1 136/136/1
f 137/137/2 138/138/2 139/139/2
f 137/137/2 139/139/2 140/140/2
f 141/141/3 142/142/3 143/143/3
f 141/141/3 143/143/3 144/144/3
f 145/145/4 146/146/4 147/147/4
f 145/145/4 147/147/4 148/148/4
f 149/149/5 150/150/5 151/151/5
f 149/149/5 151/151/5 152/152/5
f 153/153/3 154/154/3 155/155/3
f 153/153/3 155/155/3 156/156/3
f 157/157/5 158/158/5 159/159/5
f 157/157/5 159/159/5 160/160/5
f 161/161/4 162/162/4 163/163/4
f 161/161/4 163/163/4 164/164/4
f 165/165/6 166/166/6 167/167/6
f 165/165/6 167/167/6 168/168/6
f 169/169/2 170/170/2 171/171/2
f 169/169/2 171/171/2 172/172/2
f 173/173/1 174/174/1 175/175/1
f 173/173/1 175/175/1 176/176/1
